<?xml version="1.0" encoding="UTF-8" standalone="no"?>
<svg
   viewBox="0 0 80 75"
   xml:space="preserve"
   version="1.1"
   id="svg17"
   sodipodi:docname="download.svg"
   width="80"
   height="75"
   inkscape:version="1.1.1 (3bf5ae0d25, 2021-09-20)"
   xmlns:inkscape="http://www.inkscape.org/namespaces/inkscape"
   xmlns:sodipodi="http://sodipodi.sourceforge.net/DTD/sodipodi-0.dtd"
   xmlns="http://www.w3.org/2000/svg"
   xmlns:svg="http://www.w3.org/2000/svg"><defs
     id="defs21" /><sodipodi:namedview
     id="namedview19"
     pagecolor="#ffffff"
     bordercolor="#666666"
     borderopacity="1.0"
     inkscape:pageshadow="2"
     inkscape:pageopacity="0.0"
     inkscape:pagecheckerboard="0"
     showgrid="false"
     inkscape:zoom="4.8941176"
     inkscape:cx="1.9411058"
     inkscape:cy="15.018029"
     inkscape:window-width="1920"
     inkscape:window-height="1017"
     inkscape:window-x="-8"
     inkscape:window-y="-8"
     inkscape:window-maximized="1"
     inkscape:current-layer="svg17" /><radialGradient
     id="a"
     cx="-243.092"
     cy="341.13699"
     r="1"
     gradientTransform="matrix(19.7589,22.8459,22.8962,-19.8024,-2976.66,12326.484)"
     gradientUnits="userSpaceOnUse"><stop
       offset="0"
       style="stop-color:#009cd9"
       id="stop4" /><stop
       offset="1"
       style="stop-color:#023850"
       id="stop6" /></radialGradient><g
     id="g843"
     transform="translate(-2.4542913,-5.15)"><path
       d="m 49.3,62.4 -1.1,6.4 v 0.5 c 0,0.3 0.1,0.7 0.3,0.9 0.2,0.3 0.6,0.4 1.1,0.4 0.3,0 0.6,0 0.8,-0.1 0.2,-0.1 0.4,-0.2 0.5,-0.4 l 0.3,-0.6 c 0,-0.2 0.1,-0.4 0.1,-0.6 l 1.2,-6.5 h 3.6 l -1.2,7 c -0.1,0.7 -0.3,1.3 -0.6,1.8 -0.3,0.6 -0.7,1 -1.1,1.4 -0.5,0.4 -1,0.7 -1.7,0.9 -0.7,0.2 -1.4,0.3 -2.2,0.3 -0.7,0 -1.4,-0.1 -2,-0.2 -0.6,-0.1 -1.1,-0.4 -1.5,-0.7 -0.4,-0.3 -0.8,-0.7 -1,-1.1 -0.2,-0.4 -0.3,-0.9 -0.3,-1.5 v -1 l 1.2,-6.9 z m -9.3,0 c 0.4,0 0.8,0 1.2,0.1 0.4,0.1 0.8,0.2 1,0.4 0.3,0.2 0.6,0.4 0.8,0.7 0.2,0.3 0.3,0.7 0.3,1.1 0,0.7 -0.2,1.4 -0.7,1.9 -0.4,0.5 -1,0.8 -1.6,1 0.2,0 0.5,0.1 0.7,0.3 0.2,0.1 0.4,0.3 0.6,0.5 0.2,0.2 0.3,0.4 0.4,0.7 0.1,0.3 0.1,0.6 0.1,0.9 0,0.6 -0.1,1.1 -0.4,1.5 -0.2,0.4 -0.6,0.8 -1,1.1 -0.4,0.3 -1,0.5 -1.5,0.7 -0.6,0.1 -1.2,0.2 -1.9,0.2 h -5.2 l 2,-11.1 z m -7.3,0 -2,11.1 H 27 l 2,-11.1 z m 5.5,6.6 h -1.1 l -0.3,1.7 h 1.6 c 0.2,0 0.4,-0.1 0.5,-0.1 0.1,0 0.2,-0.1 0.3,-0.3 0.1,-0.1 0.1,-0.3 0.1,-0.5 0,-0.2 -0.1,-0.4 -0.3,-0.6 C 38.8,69.1 38.6,69 38.2,69 Z m 0.5,-3.8 h -0.9 l -0.2,1.5 H 39 c 0.1,0 0.3,0 0.4,-0.1 0.1,0 0.2,-0.1 0.3,-0.3 0.1,-0.1 0.1,-0.2 0.1,-0.4 0,-0.2 -0.1,-0.4 -0.3,-0.5 -0.3,-0.1 -0.5,-0.2 -0.8,-0.2 z"
       style="clip-rule:evenodd;fill:#023850;fill-rule:evenodd"
       id="path2" /><path
       d="m 21.4,32.4 c 0,-11.5 9.5,-20.7 21.1,-20.7 11.6,0 21.1,9.2 21.1,20.7 0,11.5 -9.5,20.8 -21.1,20.8 -11.6,0 -21.1,-9.3 -21.1,-20.8 z"
       style="clip-rule:evenodd;fill:url(#a);fill-rule:evenodd"
       id="path9" /><path
       d="m 42.7,11.5 h 0.5 c 3.5,0.1 6.8,1 9.7,2.5 L 52.5,13.8 C 49.6,12.4 46.1,11.9 42.7,11.9 H 42.3 C 37.4,12 32.2,14.1 28.8,17.1 l -0.3,0.2 c -4,3.7 -7.1,8.9 -7.1,14.8 v 1.4 -1.4 C 21.5,20.7 31,11.5 42.7,11.5 Z"
       style="clip-rule:evenodd;fill:#84cfed;fill-rule:evenodd"
       id="path11" /><path
       d="m 38.8,24.3 c 0,-0.1 -0.6,-0.4 -0.6,-0.5 0,-0.1 2,-2.2 2.1,-2.3 0.1,-0.1 0.1,-0.4 0,-0.4 -0.2,-0.1 -0.5,-0.2 -0.7,-0.4 -0.1,-0.1 -0.5,-0.2 -0.6,0 -0.1,0.2 -0.3,0.4 -0.4,0.5 -0.1,0.1 -0.3,0.4 -0.4,0.5 -0.2,0.3 0.1,0.5 0,0.9 0,0.1 -0.3,0.2 -0.3,0.3 -0.1,0.1 -0.2,0.2 -0.3,0.4 0,0.2 -0.5,0.2 -0.6,0 0,0 -0.1,-0.3 -0.1,-0.4 0,-0.1 0,-0.1 -0.1,-0.2 -1.5,-0.6 -3.6,-1.5 -5,-2.1 -0.6,-0.3 -2,-0.8 -2.6,-1.1 0,0 -0.4,0.2 -0.6,0.1 -0.2,-0.1 0.1,-1 0.1,-1.1 0,0 0.8,-0.5 0.9,-0.4 0.1,0.1 0,0.6 0,0.6 l 0.4,0.2 c 1.7,0.7 4.4,1.8 6.1,2.5 0.2,0.1 0.8,0.3 1,0.4 0,0 0.3,-0.8 0.6,-1.2 l 0.6,-1.2 c 0.1,-0.2 0.5,-0.3 0.9,-0.2 0,0 -3.6,-2.2 -3.7,-2.3 0,0 -0.3,0.2 -0.5,0.1 -0.2,-0.1 0.2,-0.9 0.2,-1 0,0 0.9,-0.3 1,-0.2 0.1,0.1 -0.1,0.5 -0.1,0.5 0,0.1 4.5,2.8 4.6,2.9 0.1,0 0.9,-0.9 1,-1 h 0.9 c 0.1,-0.1 2.2,-2.3 2.2,-2.4 0,-0.1 -0.3,-0.2 -0.3,-0.3 0,0 1,-1 1.1,-1 0.1,0 1.7,0.7 1.7,0.7 l -0.4,0.4 c 0,0 -0.4,-0.1 -0.5,0 -0.1,0.1 -2.3,2.4 -2.5,2.7 -0.1,0.1 0.2,0.4 0.2,0.5 0,0.1 -0.2,0.5 -0.1,0.5 h 0.5 V 19 c 0.3,-0.4 0.8,-0.7 1,-0.7 0,0 0.2,-0.1 0.5,-0.1 h 0.5 c 0,0 0.1,0.1 0.2,0.1 h 0.2 c 0.1,0 0.1,0.2 0.2,0.2 l 0.2,0.1 c 0,0 0,0.1 0.1,0.2 0,0.1 0.1,0.2 0.1,0.4 0,0.1 0.1,0.4 0.1,0.5 0,0 -0.1,0 -0.1,0.1 0,0.1 0,0.2 -0.1,0.2 0,0.1 -0.1,0.2 -0.2,0.3 -0.3,0.3 -0.5,0.4 -0.5,0.5 0,0.1 0.2,0.2 0.3,0.6 0,0.4 0,0.7 -0.3,0.9 -0.2,0.1 -0.4,0.2 -0.5,0.2 -0.1,0 0,0.1 -0.1,0.1 l -0.9,0.6 c -0.3,0.2 -0.9,1 -1,1.2 -0.2,0.2 -0.5,0.6 -0.7,0.8 h -0.6 c -0.1,0.1 0.3,0.7 0.4,0.9 0.2,0.6 0.6,1 0.9,1.6 0.1,0.3 0.3,1.6 0.3,1.9 0,0.1 0,0.3 -0.1,0.5 -0.1,0.4 -0.2,0.7 -0.2,1.1 0,0.6 -0.2,1.1 -0.5,1.5 -0.1,0.3 -0.3,0.6 -0.4,0.8 -0.2,0.2 -0.1,0.4 -0.1,0.5 0,0.2 -0.3,1.1 -0.4,1.5 -0.2,0.6 0,0.8 0.2,0.9 0.1,0 0.2,0 0.3,0.1 0.2,0.1 0.3,0.3 0.1,0.7 0.3,0 0.6,0.1 0.9,0.1 1.8,-0.2 6.6,-1 7,-1.1 1,-0.2 1.8,-0.7 1.9,-0.7 0.1,0 -0.1,1 -0.6,1.2 -0.3,0.1 -0.9,0.3 -1.3,0.4 -0.4,0.1 -18.8,3.1 -18.8,3 -0.1,-0.1 0.3,-0.8 0.4,-0.9 0.2,-0.1 5.5,-0.9 7.3,-1.3 0.4,-0.1 1.1,-0.3 1.4,-0.3 0,-0.1 -0.8,-0.2 -0.8,-0.4 -0.1,-0.5 0.6,-1.5 0.7,-1.9 0.1,-0.4 0.4,-1.1 0.4,-1.3 0,0 0.1,-1 0.3,-1.7 0.1,-0.4 0.5,-0.9 0.6,-1.2 0.2,-0.4 0,-0.9 -0.3,-1.4 -0.2,-0.3 -0.6,-0.5 -0.8,-0.7 -0.3,-0.4 -0.7,-0.7 -1,-1.1 -0.1,-0.1 -0.2,-0.2 -0.4,-0.1 -1,0.5 -1.5,1.3 -2.2,2.1 -0.4,0.5 -1,1 -1.6,1.4 l -0.9,0.6 c -0.1,0 -0.2,0.1 -0.3,0.2 -0.3,0.7 -1,1.2 -1.5,1.7 -0.3,0.3 -0.9,1.1 -0.9,1.2 v 0.4 c -0.1,0.2 -1.2,1.4 -1.4,1.6 -0.1,0.1 -0.5,0.4 -0.6,0.4 -0.2,0 -0.4,0.3 -0.6,0.4 -0.2,0.2 -1.8,2.1 -2.2,2.6 0,0 -0.6,0.8 -0.8,0.9 -0.4,0.3 -0.9,-0.1 -0.9,-0.2 0,-0.2 0.6,-0.8 0.7,-0.9 0.5,-0.7 2.2,-2.7 2.4,-3 v -0.5 c 0,-0.1 0.1,-0.3 0.1,-0.4 0,-0.1 0.2,-0.3 0.3,-0.4 0.2,-0.2 0.6,-0.8 0.8,-0.9 0.1,-0.1 1.1,-1 1.3,-1.4 0.2,-0.2 0.4,-0.4 0.5,-0.7 0.3,-0.4 0.5,-0.9 0.9,-1.3 0.2,-0.2 0.5,-0.5 0.8,-0.6 0.7,-0.5 1.3,-1.1 1.7,-1.8 0.3,-0.7 0.6,-1.3 1,-1.9 0.2,-0.4 0.6,-0.7 0.9,-1.1 0.2,-0.2 0.4,-0.5 0.5,-0.8 0.3,-0.7 0.5,-1 0.5,-1.1 z"
       style="clip-rule:evenodd;fill:#ffffff;fill-rule:evenodd"
       id="path13" /><path
       d="M 20.2,29.4 C 11.5,34.6 7,40 8.1,43 9.8,47.7 25.3,48.8 45.7,41.8 66,34.9 77.6,24.7 75.9,20 74.9,17 68.2,15.5 58.3,16.6 57.5,15.8 56.6,15.1 55.6,14.4 88.5,9.3 89.8,31.5 47.1,45.9 4.6,60.3 -8.3,42.1 20.9,26.1 c -0.4,1.1 -0.6,2.2 -0.7,3.3 z"
       style="clip-rule:evenodd;fill:#d5e000;fill-rule:evenodd"
       id="path15" /></g></svg>
